<svg width="318" height="328" viewBox="0 0 318 328" fill="none" xmlns="http://www.w3.org/2000/svg">
<path d="M2.0827 305.917L55.8327 252.167M209.916 187.667C209.916 138.192 169.808 98.084 120.333 98.084C70.8569 98.084 30.7494 138.192 30.7494 187.667C30.7494 237.143 70.8569 277.251 120.333 277.251" stroke="#E70000" stroke-opacity="0.45" stroke-width="4" stroke-linecap="round" stroke-linejoin="round"/>
<path d="M215.25 218.75L148.75 285.25" stroke="#F08889" stroke-width="4" stroke-linecap="round" stroke-linejoin="round"/>
<path d="M148.75 218.75L215.25 285.25" stroke="#F08889" stroke-width="4" stroke-linecap="round" stroke-linejoin="round"/>
<path d="M253.999 60.0006C263.572 60.0006 271.333 52.2403 271.333 42.6673C271.333 33.0944 263.572 25.334 253.999 25.334C244.426 25.334 236.666 33.0944 236.666 42.6673C236.666 52.2403 244.426 60.0006 253.999 60.0006Z" fill="#F5BDB2" stroke="#F2D6D0" stroke-linecap="round" stroke-linejoin="round"/>
<path d="M255.332 102.666H227.063C220.773 102.666 216.079 97.121 219.284 91.7082C223.932 83.8575 233.942 74.666 255.332 74.666" fill="#F5BDB2"/>
<path d="M255.332 102.666H227.063C220.773 102.666 216.079 97.121 219.284 91.7082C223.932 83.8575 233.942 74.666 255.332 74.666" stroke="#F2D6D0" stroke-linecap="round" stroke-linejoin="round"/>
<path d="M292.667 102.667L274 84" stroke="#F2D6D0" stroke-width="1.5" stroke-linecap="round" stroke-linejoin="round"/>
<path d="M274 102.667L292.667 84" stroke="#F2D6D0" stroke-width="1.5" stroke-linecap="round" stroke-linejoin="round"/>
</svg>
