<svg xmlns="http://www.w3.org/2000/svg"  viewBox="0 0 64 64" width="64px" height="64px" baseProfile="basic"><linearGradient id="KiA-L-sNecsi4Y5psu9KJa" x1="31.862" x2="31.862" y1="6.587" y2="57.413" gradientUnits="userSpaceOnUse"><stop offset="0" stop-color="#6dc7ff"/><stop offset="1" stop-color="#e6abff"/></linearGradient><path fill="url(#KiA-L-sNecsi4Y5psu9KJa)" d="M31.079,6.587c1.836,0,3.325,1.489,3.325,3.325s-1.489,3.325-3.325,3.325	c-1.836,0-3.325-1.489-3.325-3.325S29.243,6.587,31.079,6.587z M31.079,17.632c1.836,0,3.325,1.489,3.325,3.325	c0,1.836-1.489,3.325-3.325,3.325c-1.836,0-3.325-1.489-3.325-3.325C27.755,19.12,29.243,17.632,31.079,17.632z M31.079,28.675	c1.836,0,3.325,1.489,3.325,3.325s-1.489,3.325-3.325,3.325c-1.836,0-3.325-1.489-3.325-3.325S29.243,28.675,31.079,28.675z M31.079,39.719c1.836,0,3.325,1.489,3.325,3.325c0,1.836-1.489,3.325-3.325,3.325c-1.836,0-3.325-1.489-3.325-3.325	C27.755,41.208,29.243,39.719,31.079,39.719z M42.124,17.24c2.052,0,3.716,1.664,3.716,3.716s-1.664,3.716-3.716,3.716	s-3.716-1.664-3.716-3.716S40.072,17.24,42.124,17.24z M42.124,28.284c2.052,0,3.716,1.664,3.716,3.716s-1.664,3.716-3.716,3.716	S38.408,34.052,38.408,32S40.072,28.284,42.124,28.284z M42.124,39.328c2.052,0,3.716,1.664,3.716,3.716	c0,2.052-1.664,3.716-3.716,3.716s-3.716-1.664-3.716-3.716C38.408,40.991,40.072,39.328,42.124,39.328z M53.168,27.893	c2.268,0,4.107,1.839,4.107,4.107s-1.839,4.107-4.107,4.107c-2.268,0-4.107-1.839-4.107-4.107S50.9,27.893,53.168,27.893z M20.036,18.023c1.62,0,2.933,1.313,2.933,2.933s-1.313,2.933-2.933,2.933s-2.933-1.313-2.933-2.933S18.416,18.023,20.036,18.023z M20.036,29.067c1.62,0,2.933,1.313,2.933,2.933s-1.313,2.933-2.933,2.933S17.102,33.62,17.102,32S18.416,29.067,20.036,29.067z M20.036,40.11c1.62,0,2.933,1.313,2.933,2.933c0,1.62-1.313,2.933-2.933,2.933s-2.933-1.313-2.933-2.933	C17.102,41.424,18.416,40.11,20.036,40.11z M8.991,29.458c1.404,0,2.542,1.138,2.542,2.542c0,1.404-1.138,2.542-2.542,2.542	S6.449,33.404,6.449,32C6.449,30.596,7.587,29.458,8.991,29.458z M31.079,50.764c1.836,0,3.325,1.489,3.325,3.325	c0,1.836-1.489,3.325-3.325,3.325c-1.836,0-3.325-1.489-3.325-3.325C27.755,52.252,29.243,50.764,31.079,50.764z" opacity=".58"/><linearGradient id="KiA-L-sNecsi4Y5psu9KJb" x1="31.862" x2="31.862" y1="5.587" y2="58.413" gradientUnits="userSpaceOnUse"><stop offset="0" stop-color="#1a6dff"/><stop offset="1" stop-color="#c822ff"/></linearGradient><path fill="url(#KiA-L-sNecsi4Y5psu9KJb)" d="M31.079,58.413c-2.385,0-4.324-1.94-4.324-4.325c0-2.384,1.939-4.324,4.324-4.324	s4.325,1.94,4.325,4.324C35.404,56.473,33.464,58.413,31.079,58.413z M31.079,51.764c-1.281,0-2.324,1.042-2.324,2.324	s1.043,2.325,2.324,2.325c1.282,0,2.325-1.043,2.325-2.325S32.361,51.764,31.079,51.764z M42.124,47.76	c-2.601,0-4.716-2.116-4.716-4.716c0-2.6,2.115-4.716,4.716-4.716s4.716,2.116,4.716,4.716C46.84,45.644,44.725,47.76,42.124,47.76z M42.124,40.328c-1.497,0-2.716,1.218-2.716,2.716s1.219,2.716,2.716,2.716s2.716-1.219,2.716-2.716S43.621,40.328,42.124,40.328z M31.079,47.368c-2.385,0-4.324-1.94-4.324-4.325c0-2.384,1.939-4.324,4.324-4.324s4.325,1.94,4.325,4.324	C35.404,45.428,33.464,47.368,31.079,47.368z M31.079,40.719c-1.281,0-2.324,1.042-2.324,2.324s1.043,2.325,2.324,2.325	c1.282,0,2.325-1.043,2.325-2.325S32.361,40.719,31.079,40.719z M20.036,46.977c-2.169,0-3.934-1.765-3.934-3.934	s1.765-3.933,3.934-3.933c2.168,0,3.933,1.764,3.933,3.933S22.204,46.977,20.036,46.977z M20.036,41.11	c-1.066,0-1.934,0.867-1.934,1.933c0,1.066,0.867,1.934,1.934,1.934c1.065,0,1.933-0.867,1.933-1.934	C21.969,41.978,21.102,41.11,20.036,41.11z M53.168,37.107c-2.816,0-5.107-2.291-5.107-5.107s2.291-5.107,5.107-5.107	s5.107,2.291,5.107,5.107S55.984,37.107,53.168,37.107z M53.168,28.893c-1.714,0-3.107,1.394-3.107,3.107s1.394,3.107,3.107,3.107	s3.107-1.394,3.107-3.107S54.882,28.893,53.168,28.893z M42.124,36.716c-2.601,0-4.716-2.116-4.716-4.716s2.115-4.716,4.716-4.716	S46.84,29.4,46.84,32S44.725,36.716,42.124,36.716z M42.124,29.284c-1.497,0-2.716,1.218-2.716,2.716s1.219,2.716,2.716,2.716	S44.84,33.498,44.84,32S43.621,29.284,42.124,29.284z M31.079,36.325c-2.385,0-4.324-1.94-4.324-4.325s1.939-4.325,4.324-4.325	s4.325,1.94,4.325,4.325S33.464,36.325,31.079,36.325z M31.079,29.675c-1.281,0-2.324,1.043-2.324,2.325s1.043,2.325,2.324,2.325	c1.282,0,2.325-1.043,2.325-2.325S32.361,29.675,31.079,29.675z M20.036,35.934c-2.169,0-3.934-1.765-3.934-3.934	s1.765-3.934,3.934-3.934c2.168,0,3.933,1.765,3.933,3.934S22.204,35.934,20.036,35.934z M20.036,30.066	c-1.066,0-1.934,0.867-1.934,1.934s0.867,1.934,1.934,1.934c1.065,0,1.933-0.867,1.933-1.934S21.102,30.066,20.036,30.066z M8.991,35.542c-1.953,0-3.543-1.589-3.543-3.542s1.59-3.542,3.543-3.542s3.542,1.589,3.542,3.542S10.944,35.542,8.991,35.542z M8.991,30.458c-0.851,0-1.543,0.692-1.543,1.542s0.692,1.542,1.543,1.542S10.533,32.85,10.533,32S9.842,30.458,8.991,30.458z M42.124,25.672c-2.601,0-4.716-2.116-4.716-4.716c0-2.601,2.115-4.716,4.716-4.716s4.716,2.116,4.716,4.716	C46.84,23.557,44.725,25.672,42.124,25.672z M42.124,18.24c-1.497,0-2.716,1.219-2.716,2.716s1.219,2.716,2.716,2.716	s2.716-1.218,2.716-2.716S43.621,18.24,42.124,18.24z M31.079,25.281c-2.385,0-4.324-1.94-4.324-4.324	c0-2.385,1.939-4.325,4.324-4.325s4.325,1.94,4.325,4.325C35.404,23.341,33.464,25.281,31.079,25.281z M31.079,18.632	c-1.281,0-2.324,1.043-2.324,2.325s1.043,2.324,2.324,2.324c1.282,0,2.325-1.042,2.325-2.324S32.361,18.632,31.079,18.632z M20.036,24.89c-2.169,0-3.934-1.764-3.934-3.933s1.765-3.934,3.934-3.934c2.168,0,3.933,1.765,3.933,3.934	S22.204,24.89,20.036,24.89z M20.036,19.023c-1.066,0-1.934,0.867-1.934,1.934c0,1.066,0.867,1.933,1.934,1.933	c1.065,0,1.933-0.867,1.933-1.933C21.969,19.89,21.102,19.023,20.036,19.023z M31.079,14.236c-2.385,0-4.324-1.94-4.324-4.324	c0-2.385,1.939-4.325,4.324-4.325s4.325,1.94,4.325,4.325C35.404,12.296,33.464,14.236,31.079,14.236z M31.079,7.587	c-1.281,0-2.324,1.043-2.324,2.325s1.043,2.324,2.324,2.324c1.282,0,2.325-1.042,2.325-2.324S32.361,7.587,31.079,7.587z"/></svg>